{
    "asset" : {
        "generator" : "Khronos glTF Blender I/O v1.6.16",
        "version" : "2.0"
    },
    "scene" : 0,
    "scenes" : [
        {
            "name" : "Scene",
            "nodes" : [
                0
            ]
        }
    ],
    "nodes" : [
        {
            "mesh" : 0,
            "name" : "Cylinder",
            "rotation" : [
                0.5171343684196472,
                0,
                0,
                0.855904221534729
            ],
            "scale" : [
                0.7091987133026123,
                0.1185988336801529,
                0.9103043079376221
            ]
        }
    ],
    "meshes" : [
        {
            "name" : "Cylinder",
            "primitives" : [
                {
                    "attributes" : {
                        "POSITION" : 0,
                        "NORMAL" : 1,
                        "TEXCOORD_0" : 2
                    },
                    "indices" : 3
                }
            ]
        }
    ],
    "accessors" : [
        {
            "bufferView" : 0,
            "componentType" : 5126,
            "count" : 125743,
            "max" : [
                0.8605197668075562,
                107.74925231933594,
                6.185592174530029
            ],
            "min" : [
                -0.8605197668075562,
                -6.289595603942871,
                -0.912807285785675
            ],
            "type" : "VEC3"
        },
        {
            "bufferView" : 1,
            "componentType" : 5126,
            "count" : 125743,
            "type" : "VEC3"
        },
        {
            "bufferView" : 2,
            "componentType" : 5126,
            "count" : 125743,
            "type" : "VEC2"
        },
        {
            "bufferView" : 3,
            "componentType" : 5125,
            "count" : 190182,
            "type" : "SCALAR"
        }
    ],
    "bufferViews" : [
        {
            "buffer" : 0,
            "byteLength" : 1508916,
            "byteOffset" : 0
        },
        {
            "buffer" : 0,
            "byteLength" : 1508916,
            "byteOffset" : 1508916
        },
        {
            "buffer" : 0,
            "byteLength" : 1005944,
            "byteOffset" : 3017832
        },
        {
            "buffer" : 0,
            "byteLength" : 760728,
            "byteOffset" : 4023776
        }
    ],
    "buffers" : [
        {
            "byteLength" : 4784504,
            "uri" : "Keen.bin"
        }
    ]
}
