{
    "asset" : {
        "generator" : "Khronos glTF Blender I/O v1.6.16",
        "version" : "2.0"
    },
    "scene" : 0,
    "scenes" : [
        {
            "name" : "Scene",
            "nodes" : [
                0
            ]
        }
    ],
    "nodes" : [
        {
            "mesh" : 0,
            "name" : "Trace",
            "scale" : [
                0.9781022667884827,
                0.9781022667884827,
                0.9781022667884827
            ],
            "translation" : [
                30,
                -7.913421630859375,
                0
            ]
        }
    ],
    "materials" : [
        {
            "doubleSided" : true,
            "name" : "GoldSheen",
            "pbrMetallicRoughness" : {
                "baseColorTexture" : {
                    "index" : 0
                },
                "metallicFactor" : 0.625,
                "roughnessFactor" : 0.22794115543365479
            }
        },
        {
            "doubleSided" : true,
            "name" : "Material",
            "pbrMetallicRoughness" : {
                "baseColorFactor" : [
                    0,
                    0,
                    0,
                    1
                ],
                "metallicFactor" : 0,
                "roughnessFactor" : 0.4000000059604645
            }
        }
    ],
    "meshes" : [
        {
            "name" : "Trace",
            "primitives" : [
                {
                    "attributes" : {
                        "POSITION" : 0,
                        "NORMAL" : 1,
                        "TEXCOORD_0" : 2,
                        "TEXCOORD_1" : 3
                    },
                    "indices" : 4,
                    "material" : 0
                },
                {
                    "attributes" : {
                        "POSITION" : 5,
                        "NORMAL" : 6,
                        "TEXCOORD_0" : 7,
                        "TEXCOORD_1" : 8
                    },
                    "indices" : 9,
                    "material" : 1
                }
            ]
        }
    ],
    "textures" : [
        {
            "sampler" : 0,
            "source" : 0
        }
    ],
    "images" : [
        {
            "mimeType" : "image/jpeg",
            "name" : "688d23aab0393e6b65307a90618f9a09",
            "uri" : "688d23aab0393e6b65307a90618f9a09.jpg"
        }
    ],
    "accessors" : [
        {
            "bufferView" : 0,
            "componentType" : 5126,
            "count" : 349673,
            "max" : [
                -19.398103713989258,
                12.168931007385254,
                2.0523440837860107
            ],
            "min" : [
                -23.517236709594727,
                8.06874942779541,
                -2.0527751445770264
            ],
            "type" : "VEC3"
        },
        {
            "bufferView" : 1,
            "componentType" : 5126,
            "count" : 349673,
            "type" : "VEC3"
        },
        {
            "bufferView" : 2,
            "componentType" : 5126,
            "count" : 349673,
            "type" : "VEC2"
        },
        {
            "bufferView" : 3,
            "componentType" : 5126,
            "count" : 349673,
            "type" : "VEC2"
        },
        {
            "bufferView" : 4,
            "componentType" : 5125,
            "count" : 696624,
            "type" : "SCALAR"
        },
        {
            "bufferView" : 5,
            "componentType" : 5126,
            "count" : 24,
            "max" : [
                -19.45616912841797,
                12.133389472961426,
                2.013975143432617
            ],
            "min" : [
                -23.484119415283203,
                8.105439186096191,
                -2.013975143432617
            ],
            "type" : "VEC3"
        },
        {
            "bufferView" : 6,
            "componentType" : 5126,
            "count" : 24,
            "type" : "VEC3"
        },
        {
            "bufferView" : 7,
            "componentType" : 5126,
            "count" : 24,
            "type" : "VEC2"
        },
        {
            "bufferView" : 8,
            "componentType" : 5126,
            "count" : 24,
            "type" : "VEC2"
        },
        {
            "bufferView" : 9,
            "componentType" : 5123,
            "count" : 36,
            "type" : "SCALAR"
        }
    ],
    "bufferViews" : [
        {
            "buffer" : 0,
            "byteLength" : 4196076,
            "byteOffset" : 0
        },
        {
            "buffer" : 0,
            "byteLength" : 4196076,
            "byteOffset" : 4196076
        },
        {
            "buffer" : 0,
            "byteLength" : 2797384,
            "byteOffset" : 8392152
        },
        {
            "buffer" : 0,
            "byteLength" : 2797384,
            "byteOffset" : 11189536
        },
        {
            "buffer" : 0,
            "byteLength" : 2786496,
            "byteOffset" : 13986920
        },
        {
            "buffer" : 0,
            "byteLength" : 288,
            "byteOffset" : 16773416
        },
        {
            "buffer" : 0,
            "byteLength" : 288,
            "byteOffset" : 16773704
        },
        {
            "buffer" : 0,
            "byteLength" : 192,
            "byteOffset" : 16773992
        },
        {
            "buffer" : 0,
            "byteLength" : 192,
            "byteOffset" : 16774184
        },
        {
            "buffer" : 0,
            "byteLength" : 72,
            "byteOffset" : 16774376
        }
    ],
    "samplers" : [
        {
            "magFilter" : 9729,
            "minFilter" : 9987
        }
    ],
    "buffers" : [
        {
            "byteLength" : 16774448,
            "uri" : "LC.bin"
        }
    ]
}
