{
    "asset" : {
        "generator" : "Khronos glTF Blender I/O v1.6.16",
        "version" : "2.0"
    },
    "scene" : 0,
    "scenes" : [
        {
            "name" : "Scene",
            "nodes" : [
                0
            ]
        }
    ],
    "nodes" : [
        {
            "mesh" : 0,
            "name" : "Trace",
            "scale" : [
                0.9781022667884827,
                0.9781022667884827,
                0.9781022667884827
            ],
            "translation" : [
                3.814697265625e-06,
                0,
                0
            ]
        }
    ],
    "materials" : [
        {
            "doubleSided" : true,
            "name" : "GoldSheen",
            "pbrMetallicRoughness" : {
                "baseColorTexture" : {
                    "index" : 0
                },
                "metallicFactor" : 0.625,
                "roughnessFactor" : 0.22794115543365479
            }
        },
        {
            "doubleSided" : true,
            "name" : "Material",
            "pbrMetallicRoughness" : {
                "baseColorFactor" : [
                    0,
                    0,
                    0,
                    1
                ],
                "metallicFactor" : 0,
                "roughnessFactor" : 0.4000000059604645
            }
        }
    ],
    "meshes" : [
        {
            "name" : "Trace",
            "primitives" : [
                {
                    "attributes" : {
                        "POSITION" : 0,
                        "NORMAL" : 1,
                        "TEXCOORD_0" : 2,
                        "TEXCOORD_1" : 3
                    },
                    "indices" : 4,
                    "material" : 0
                },
                {
                    "attributes" : {
                        "POSITION" : 5,
                        "NORMAL" : 6,
                        "TEXCOORD_0" : 7,
                        "TEXCOORD_1" : 8
                    },
                    "indices" : 9,
                    "material" : 1
                }
            ]
        }
    ],
    "textures" : [
        {
            "sampler" : 0,
            "source" : 0
        }
    ],
    "images" : [
        {
            "mimeType" : "image/jpeg",
            "name" : "688d23aab0393e6b65307a90618f9a09",
            "uri" : "688d23aab0393e6b65307a90618f9a09.jpg"
        }
    ],
    "accessors" : [
        {
            "bufferView" : 0,
            "componentType" : 5126,
            "count" : 349641,
            "max" : [
                2.0491695404052734,
                2.0544919967651367,
                2.054717540740967
            ],
            "min" : [
                -2.069965362548828,
                -2.045689582824707,
                -2.0504016876220703
            ],
            "type" : "VEC3"
        },
        {
            "bufferView" : 1,
            "componentType" : 5126,
            "count" : 349641,
            "type" : "VEC3"
        },
        {
            "bufferView" : 2,
            "componentType" : 5126,
            "count" : 349641,
            "type" : "VEC2"
        },
        {
            "bufferView" : 3,
            "componentType" : 5126,
            "count" : 349641,
            "type" : "VEC2"
        },
        {
            "bufferView" : 4,
            "componentType" : 5125,
            "count" : 696624,
            "type" : "SCALAR"
        },
        {
            "bufferView" : 5,
            "componentType" : 5126,
            "count" : 24,
            "max" : [
                1.9911022186279297,
                2.0189504623413086,
                2.0163486003875732
            ],
            "min" : [
                -2.0368480682373047,
                -2.008999824523926,
                -2.011601686477661
            ],
            "type" : "VEC3"
        },
        {
            "bufferView" : 6,
            "componentType" : 5126,
            "count" : 24,
            "type" : "VEC3"
        },
        {
            "bufferView" : 7,
            "componentType" : 5126,
            "count" : 24,
            "type" : "VEC2"
        },
        {
            "bufferView" : 8,
            "componentType" : 5126,
            "count" : 24,
            "type" : "VEC2"
        },
        {
            "bufferView" : 9,
            "componentType" : 5123,
            "count" : 36,
            "type" : "SCALAR"
        }
    ],
    "bufferViews" : [
        {
            "buffer" : 0,
            "byteLength" : 4195692,
            "byteOffset" : 0
        },
        {
            "buffer" : 0,
            "byteLength" : 4195692,
            "byteOffset" : 4195692
        },
        {
            "buffer" : 0,
            "byteLength" : 2797128,
            "byteOffset" : 8391384
        },
        {
            "buffer" : 0,
            "byteLength" : 2797128,
            "byteOffset" : 11188512
        },
        {
            "buffer" : 0,
            "byteLength" : 2786496,
            "byteOffset" : 13985640
        },
        {
            "buffer" : 0,
            "byteLength" : 288,
            "byteOffset" : 16772136
        },
        {
            "buffer" : 0,
            "byteLength" : 288,
            "byteOffset" : 16772424
        },
        {
            "buffer" : 0,
            "byteLength" : 192,
            "byteOffset" : 16772712
        },
        {
            "buffer" : 0,
            "byteLength" : 192,
            "byteOffset" : 16772904
        },
        {
            "buffer" : 0,
            "byteLength" : 72,
            "byteOffset" : 16773096
        }
    ],
    "samplers" : [
        {
            "magFilter" : 9729,
            "minFilter" : 9987
        }
    ],
    "buffers" : [
        {
            "byteLength" : 16773168,
            "uri" : "LC.bin"
        }
    ]
}
