{
    "asset" : {
        "generator" : "Khronos glTF Blender I/O v1.6.16",
        "version" : "2.0"
    },
    "scene" : 0,
    "scenes" : [
        {
            "name" : "Scene",
            "nodes" : [
                0,
                1,
                2
            ]
        }
    ],
    "nodes" : [
        {
            "mesh" : 0,
            "name" : "Plane",
            "translation" : [
                3,
                0,
                0.4914223551750183
            ]
        },
        {
            "name" : "Empty",
            "translation" : [
                -3.7573697566986084,
                -0.010442078113555908,
                1.3986804485321045
            ]
        },
        {
            "mesh" : 1,
            "name" : "Plane.004",
            "rotation" : [
                -0.026064645498991013,
                0,
                0,
                0.9996602535247803
            ],
            "translation" : [
                -3,
                -2,
                4
            ]
        }
    ],
    "meshes" : [
        {
            "name" : "Plane",
            "primitives" : [
                {
                    "attributes" : {
                        "POSITION" : 0,
                        "NORMAL" : 1,
                        "TEXCOORD_0" : 2
                    },
                    "indices" : 3
                }
            ]
        },
        {
            "name" : "Plane.001",
            "primitives" : [
                {
                    "attributes" : {
                        "POSITION" : 4,
                        "NORMAL" : 5,
                        "TEXCOORD_0" : 6
                    },
                    "indices" : 7
                }
            ]
        }
    ],
    "accessors" : [
        {
            "bufferView" : 0,
            "componentType" : 5126,
            "count" : 332497,
            "max" : [
                2.5229971408843994,
                0.5229601860046387,
                5.9354729652404785
            ],
            "min" : [
                -2.5229971408843994,
                -0.5229604244232178,
                -4.8805084228515625
            ],
            "type" : "VEC3"
        },
        {
            "bufferView" : 1,
            "componentType" : 5126,
            "count" : 332497,
            "type" : "VEC3"
        },
        {
            "bufferView" : 2,
            "componentType" : 5126,
            "count" : 332497,
            "type" : "VEC2"
        },
        {
            "bufferView" : 3,
            "componentType" : 5125,
            "count" : 525192,
            "type" : "SCALAR"
        },
        {
            "bufferView" : 4,
            "componentType" : 5126,
            "count" : 337973,
            "max" : [
                2.538623332977295,
                2.5104176998138428,
                2.75258207321167
            ],
            "min" : [
                -2.5073704719543457,
                1.4647241830825806,
                -8.002708435058594
            ],
            "type" : "VEC3"
        },
        {
            "bufferView" : 5,
            "componentType" : 5126,
            "count" : 337973,
            "type" : "VEC3"
        },
        {
            "bufferView" : 6,
            "componentType" : 5126,
            "count" : 337973,
            "type" : "VEC2"
        },
        {
            "bufferView" : 7,
            "componentType" : 5125,
            "count" : 507060,
            "type" : "SCALAR"
        }
    ],
    "bufferViews" : [
        {
            "buffer" : 0,
            "byteLength" : 3989964,
            "byteOffset" : 0
        },
        {
            "buffer" : 0,
            "byteLength" : 3989964,
            "byteOffset" : 3989964
        },
        {
            "buffer" : 0,
            "byteLength" : 2659976,
            "byteOffset" : 7979928
        },
        {
            "buffer" : 0,
            "byteLength" : 2100768,
            "byteOffset" : 10639904
        },
        {
            "buffer" : 0,
            "byteLength" : 4055676,
            "byteOffset" : 12740672
        },
        {
            "buffer" : 0,
            "byteLength" : 4055676,
            "byteOffset" : 16796348
        },
        {
            "buffer" : 0,
            "byteLength" : 2703784,
            "byteOffset" : 20852024
        },
        {
            "buffer" : 0,
            "byteLength" : 2028240,
            "byteOffset" : 23555808
        }
    ],
    "buffers" : [
        {
            "byteLength" : 25584048,
            "uri" : "Sarenrae.bin"
        }
    ]
}
